<svg xmlns="http://www.w3.org/2000/svg">
  <symbol id="twitter" viewbox="0 0 32 32">
    <path d="M16 0a16 16 0 1 0 0 32 16 16 0 0 0 0-32zm8 13c0 6-4 11-11 11h-1l-5-2 5-1c-1-1-3-1-3-3h1l-2-4 1 1c-1-1-2-4-1-5 2 2 4 3 8 3 0-2 1-3 3-4l4 1h2l-1 1h2l-2 2z"/>
  </symbol>

  <symbol id="facebook" viewbox="0 0 32 32">
    <path d="M16 0a16 16 0 1 0 0 32 16 16 0 0 0 0-32zm4 9h-3v4h3v3h-3v9h-3v-9h-3v-3h3V9c0-1 1-3 3-3h3v3z"/>
  </symbol>

  <symbol id="instagram" viewbox="0 0 32 32">
    <g>
      <path d="M21 16a5 5 0 1 1-10 0v-1h-1v7h12v-7h-1v1z"/><path d="M16 19a3 3 0 1 0 0-6 3 3 0 0 0 0 6zm3-9h3v3h-3z"/><path d="M16 0a16 16 0 1 0 0 32 16 16 0 0 0 0-32zm8 22a2 2 0 0 1-2 2H10a2 2 0 0 1-2-2V10a2 2 0 0 1 2-2h12a2 2 0 0 1 2 2v12z"/>
    </g>
  </symbol>

  <symbol id="htmlacademy-logo" viewBox="0 0 27 35">
    <path d="M13.62.017L13.472 0 0 1.412v24.661l13.472 8.017 13.43-7.99.042-.026V1.412L13.62.017zm11.399 12.11L13.495 5.334l-.001-.104-.087.05-.088-.056v.109L1.925 12.118V3.147l11.547-1.212 11.547 1.212v8.98zm-11.614-5.34L24.923 13.5l-4.479 2.64-7.093-4.221-.013 1.415 5.904 3.513-.86.507-5.031-2.992-.013 1.415 3.827 2.275-.782.523-3.032-1.787-.013 1.413 1.852 1.091-1.8 1.081-11.356-6.751 11.371-6.835zm-11.48 8.34l11.411 6.791.015 1.044-7.941-4.728-.015 1.416 7.979 4.796.017 1.076-7.972-4.741-.013 1.415 8.021 4.821.045.026 8.143-4.872v-1.268l-.011-.148v-3.761l3.415-2.036v10.02L13.472 31.85 1.925 24.979v-9.852z"/>
  </symbol>
</svg>
