<svg xmlns="http://www.w3.org/2000/svg" width="156" height="188">
  <g fill="#FFF">
    <circle cx="141" cy="69" r="15"/>
    <path d="M89 140l-7 17-23 15a7 7 0 0 0-3 7 7 7 0 0 0 7 7 7 7 0 0 0 4-2l25-15c4-2 4-6 4-6l5-16-5-2c-6-3-7-5-7-5z"/>
    <path d="M139 141s-1-3-4-5l-18-7 15-26s4-9 0-13l-14-10h-8l16-27c4-6 2-13-4-16L73 7c-6-3-13-1-17 5L9 92c-3 5-1 13 4 16l50 29c5 3 13 2 16-4l23-39h8l-15 26s-5 9 0 14c4 5 13 7 13 7l17 7 5 31c1 3 4 6 7 6a7 7 0 0 0 7-7v-1l-5-36zM18 100c-1-1-2-3-1-4l47-80c1-1 3-2 4-1l12 7-51 85-11-7zm53 28c0 2-2 2-4 1l-30-17 50-85 30 17c2 1 2 3 2 4l-19 32h-9L71 94a7 7 0 0 0-1 1 7 7 0 0 0-2 5 7 7 0 0 0 7 8 7 7 0 0 0 4-2h1l9-8-18 30z"/>
  </g>
  <path fill="#F0C42E" d="M49 6L2 86c-3 5-1 13 4 16l50 29c5 4 13 2 16-4l47-80c4-5 2-13-4-16L66 2c-6-4-13-2-17 4zM10 90l47-79c1-2 3-2 4-2l12 7-51 85-11-7c-1 0-2-2-1-4zm102-47l-48 80-4 1-30-18 50-85 30 18c2 0 2 2 2 4z"/>
  <g fill="#3A3A3A">
    <circle cx="135" cy="63" r="15"/>
    <path d="M82 134l-7 18-23 15a7 7 0 0 0-4 6 7 7 0 0 0 8 7 7 7 0 0 0 4-1l25-16c4-2 4-5 4-5l5-16-6-3-6-5zm50 2s-1-4-4-5l-19-8 16-26s4-9-1-13l-13-10H84L64 88a7 7 0 0 0-1 1 7 7 0 0 0-3 6 7 7 0 0 0 8 7 7 7 0 0 0 4-2l15-12h16l-15 26s-5 10 0 15c4 4 13 6 13 6l17 7 5 31c0 4 3 6 7 6a7 7 0 0 0 7-7l-5-36z"/>
  </g>
</svg>
