<svg xmlns="http://www.w3.org/2000/svg" width="136" height="164">
  <path d="M93 39c8 0 15-6 17-13l5 1a2 2 0 0 0 3-2 2 2 0 0 0-2-3l-5-1-1-9-3-4C97 6 87 6 85 6l-4 1-3 5v1a17 17 0 0 0-2 8c0 10 7 18 17 18zm39 39l-27-2-9-21s-1-3-6-9c-6-5-17-3-17-3l-32 6c-8 2-8 10-8 10l-1 5-15-3a3 3 0 0 0-3 2l-8 38a3 3 0 0 0 2 4l52 10h-1l-10-2-3 17-23 20a7 7 0 1 0 10 11l29-23 3-4 6-17c1-2 5-1 5-1l22 9 8 29 1 2a7 7 0 0 0 14-5l-6-32c-1-5-5-7-5-7l-22-12c-2-1-1-3-1-3l4-14 2 6s2 3 5 3l33 1a7 7 0 0 0 7-8 7 7 0 0 0-6-7zM60 63l-2 6 10 2-20-4 1-3 11-1zm-2 45l-45-9 6-32 12 3-1 11-1 5a7 7 0 0 0 7 8 7 7 0 0 0 8-8l3-13 17 3-6 32zM25 17h38l2-2-2-2H25l-2 2 2 2zm13 6l-2 2 2 2h23l2-2a2 2 0 0 0-2-2H38z" fill="#FFF"/>
  <path fill="#3A3A3A" d="M87 33c8 0 15-6 17-13h5a2 2 0 0 0 3-1 2 2 0 0 0-2-3l-5-1-2-10c0-2-2-3-2-3-10-2-20-2-22-2l-4 1-3 5a17 17 0 0 0-2 9c0 10 7 18 17 18zm39 39l-27-2-9-21s-1-3-6-9c-6-5-17-3-17-3l-32 6c-8 2-8 10-8 10l-3 22-1 5a7 7 0 0 0 7 8 7 7 0 0 0 8-8l5-22 11-1-2 6 10 2a3 3 0 0 1 3 3l-8 38a3 3 0 0 1-3 3h-1l-10-2-3 17-23 20a7 7 0 1 0 9 11l30-23 3-4 6-17c0-2 5-1 5-1l22 9 8 29 1 2a7 7 0 0 0 14-5l-6-32c-1-5-5-7-5-7L82 94c-2-1-1-3-1-3l4-14 2 6s2 3 5 3l33 1a7 7 0 0 0 1-15z"/>
  <path fill="#F0C42E" d="M54 109c2 0 3-1 3-3l8-38a3 3 0 0 0-3-3l-20-4-1 6 17 3-6 32-45-9 6-32 12 3 1-6-15-3a3 3 0 0 0-4 2L0 95a3 3 0 0 0 2 4l52 10z"/>
  <path fill="#F0C52E" d="M59 9a2 2 0 0 1-2 2H19l-2-2 2-2h38l2 2zm-2 10l-2 2H32l-2-2a2 2 0 0 1 2-2h23l2 2z"/>
</svg>
