<svg xmlns="http://www.w3.org/2000/svg" width="171" height="195">
  <g fill="#FFF">
    <path d="M78 175l-13-16c-1-2-3-3-6-3l-5 2-6 2c-1 0-5-1-9-6-3-4-3-9-3-11l6-6c3-2 2-6 1-8v-1l-15-18-4-2c-3 0-6 2-7 3-10 7-11 14-11 15v1a89 89 0 0 0 38 61c7 5 14 6 17 6l6-1c4-2 9-8 11-10 2-3 1-7 0-8zm-14 12h-3c-2 0-7 0-12-5l-3-2c-9-7-27-21-33-54 0-1 2-5 8-10a11 11 0 0 1 3-1l13 17-7 8-1 1s-2 10 5 18c6 7 13 8 14 9h2l7-4a5 5 0 0 1 3-1l12 16-8 8zm74-121c5-5 7-12 5-21a3 3 0 0 0-4-1l-8 7c-2-1-4-2-5-5l7-7a3 3 0 0 0 0-3v-1a2 2 0 0 0-1 0s-4-2-9-2c-4 0-9 2-12 5-6 7-4 15-3 19l-4 3-10-9 5-3-20-14-11 11 14 20 3-5 9 10-3 4-7-1c-5 0-10 2-14 6 0 0-6 8-2 19a3 3 0 0 0 4 1l8-8c1 1 4 2 5 6l-8 8a2 2 0 0 0 1 4l7 1c6 0 12-3 15-7 3-5 4-9 4-13l16 16c2 2 5 3 8 3l7-3 5-5c5-6 2-12 0-15l-17-17h4c4 0 8-1 11-3zM85 52l-3 4-7-11 4-4 11 7-4 3 15 13-4 4 1-1-13-15zm13 34s3 7-2 14c-3 4-8 5-12 5l5-5 1-2c-2-11-10-12-10-12a3 3 0 0 0-2 1l-7 5c0-6 3-9 3-10 3-3 6-4 10-4l7 1a3 3 0 0 0 2-1l19-19a2 2 0 0 0 1-2c0-1-4-9 2-15 2-3 5-4 8-4h4l-5 5a3 3 0 0 0-1 2c1 9 9 11 9 11a3 3 0 0 0 3 0l6-5c0 4-1 8-5 11-2 2-5 2-7 2h-7a3 3 0 0 0-3 0L99 83a3 3 0 0 0-1 3zm6 1zm-1-1zm34 11l-6 6c-3 3-7 0-8-1l-18-18 15-15-2 2 18 19c1 0 4 4 1 7zm-16-28zm-1 0h1a4 4 0 0 1-1 0z"/>
    <path d="M104 6a66 66 0 0 0-8 131v27s57-22 72-74v-1-1-1a66 66 0 0 0 2-15c0-36-29-66-66-66zm58 79h-1v3c-6 20-19 38-39 52l-19 13v-22l-6-1a59 59 0 1 1 66-58 59 59 0 0 1-1 13z"/>
  </g>
  <path fill="#3A3A3A" d="M55 188c-3 0-10-1-17-6l-3-3c-9-7-29-22-35-58v-1c0-1 0-8 11-15 1-1 4-3 7-3l4 2 15 18v1c1 2 2 6-1 8l-6 6c0 2 0 7 3 11 4 5 8 6 9 6l6-2 5-2c3 0 5 1 6 3l13 16c1 1 2 5 0 8-2 2-7 8-11 10l-6 1zM7 120c6 33 24 47 33 54l3 2c5 5 10 5 12 5h3l8-8-13-16-2 1-8 4h-1c-1-1-8-2-14-9-7-8-5-18-5-18v-1l8-8-14-17-2 1c-6 5-8 9-8 10z"/>
  <path fill="#F0C42E" d="M78 104l-6-1a3 3 0 0 1-1-4l7-8c-1-4-3-5-4-6l-9 8a3 3 0 0 1-4-1c-3-11 3-19 3-19 4-4 9-6 14-6l7 1 17-17c-1-4-3-12 3-19 3-3 7-5 12-5s9 2 9 2h1v4l-7 7c1 3 3 4 4 5l9-7a3 3 0 0 1 4 1c2 9 0 16-5 21-3 2-7 3-12 3h-6L97 79c1 4 2 11-3 18-3 4-9 7-16 7zm0-5c4 0 9-1 12-5 5-7 2-14 2-14a3 3 0 0 1 1-3l18-19a3 3 0 0 1 2 0h7c3 0 6 0 8-2 4-3 5-7 5-11l-6 5a3 3 0 0 1-3 0s-8-2-9-11a2 2 0 0 1 0-2l6-5a14 14 0 0 0-4 0c-3 0-6 1-8 4-6 6-2 14-2 15l-1 2-19 19a3 3 0 0 1-3 1l-6-1c-4 0-7 1-10 4 0 1-3 4-3 10l7-5a3 3 0 0 1 2-1s8 1 10 12a2 2 0 0 1-1 2l-5 5z"/>
  <path d="M79 54l9 10 4-3-14-15-2 4-8-11 5-4 11 7-4 3 15 13 3-4-10-9 5-3-20-14-11 11 14 20zm38 9a37 37 0 0 1-3 0l-2 2 18 19c1 0 3 4 0 7l-5 6c-3 3-7 0-8-1L99 78l-2 1 1 5 16 16c2 2 4 3 8 3l6-3 6-5c5-6 2-12 0-15l-17-17z" fill="#3A3A3A"/>
  <path fill="#3A3A3A" d="M98 7a59 59 0 0 1 57 72v1a36 36 0 0 1 0 1v1c-6 20-19 38-39 52-7 6-14 10-20 13v-22l-6-1A59 59 0 0 1 98 7m0-7a66 66 0 0 0-8 131v27s57-22 71-74l1-1v-1-1a66 66 0 0 0 2-15c0-36-30-66-66-66z"/>
</svg>
